<?xml version="1.0" encoding="utf-8" standalone="no"?>
<!DOCTYPE svg PUBLIC "-//W3C//DTD SVG 1.1//EN"
  "http://www.w3.org/Graphics/SVG/1.1/DTD/svg11.dtd">
<svg height="288pt" version="1.1" viewBox="0 0 432 288" width="432pt" xmlns="http://www.w3.org/2000/svg" xmlns:xlink="http://www.w3.org/1999/xlink">
 <metadata>
  <rdf:RDF xmlns:cc="http://creativecommons.org/ns#" xmlns:dc="http://purl.org/dc/elements/1.1/" xmlns:rdf="http://www.w3.org/1999/02/22-rdf-syntax-ns#">
   <cc:Work>
    <dc:type rdf:resource="http://purl.org/dc/dcmitype/StillImage"/>
    <dc:date>2021-10-05T20:23:14.339043</dc:date>
    <dc:format>image/svg+xml</dc:format>
    <dc:creator>
     <cc:Agent>
      <dc:title>Matplotlib v3.4.2, https://matplotlib.org/</dc:title>
     </cc:Agent>
    </dc:creator>
   </cc:Work>
  </rdf:RDF>
 </metadata>
 <defs>
  <style type="text/css">*{stroke-linecap:butt;stroke-linejoin:round;}</style>
 </defs>
 <g id="figure_1">
  <g id="patch_1">
   <path d="M 0 288 
L 432 288 
L 432 0 
L 0 0 
z
" style="fill:none;"/>
  </g>
  <g id="axes_1">
   <g id="patch_2">
    <path d="M 54 252 
L 388.8 252 
L 388.8 34.56 
L 54 34.56 
z
" style="fill:#ffffff;"/>
   </g>
   <g id="matplotlib.axis_1">
    <g id="xtick_1">
     <g id="line2d_1">
      <defs>
       <path d="M 0 0 
L 0 3.5 
" id="m22a34a0ac1" style="stroke:#000000;stroke-width:0.8;"/>
      </defs>
      <g>
       <use style="stroke:#000000;stroke-width:0.8;" x="69.218182" xlink:href="#m22a34a0ac1" y="252"/>
      </g>
     </g>
     <g id="text_1">
      <!-- 10 -->
      <g transform="translate(62.855682 266.598437)scale(0.1 -0.1)">
       <defs>
        <path d="M 794 531 
L 1825 531 
L 1825 4091 
L 703 3866 
L 703 4441 
L 1819 4666 
L 2450 4666 
L 2450 531 
L 3481 531 
L 3481 0 
L 794 0 
L 794 531 
z
" id="DejaVuSans-31" transform="scale(0.015625)"/>
        <path d="M 2034 4250 
Q 1547 4250 1301 3770 
Q 1056 3291 1056 2328 
Q 1056 1369 1301 889 
Q 1547 409 2034 409 
Q 2525 409 2770 889 
Q 3016 1369 3016 2328 
Q 3016 3291 2770 3770 
Q 2525 4250 2034 4250 
z
M 2034 4750 
Q 2819 4750 3233 4129 
Q 3647 3509 3647 2328 
Q 3647 1150 3233 529 
Q 2819 -91 2034 -91 
Q 1250 -91 836 529 
Q 422 1150 422 2328 
Q 422 3509 836 4129 
Q 1250 4750 2034 4750 
z
" id="DejaVuSans-30" transform="scale(0.015625)"/>
       </defs>
       <use xlink:href="#DejaVuSans-31"/>
       <use x="63.623047" xlink:href="#DejaVuSans-30"/>
      </g>
     </g>
    </g>
    <g id="xtick_2">
     <g id="line2d_2">
      <g>
       <use style="stroke:#000000;stroke-width:0.8;" x="106.793939" xlink:href="#m22a34a0ac1" y="252"/>
      </g>
     </g>
     <g id="text_2">
      <!-- 20 -->
      <g transform="translate(100.431439 266.598437)scale(0.1 -0.1)">
       <defs>
        <path d="M 1228 531 
L 3431 531 
L 3431 0 
L 469 0 
L 469 531 
Q 828 903 1448 1529 
Q 2069 2156 2228 2338 
Q 2531 2678 2651 2914 
Q 2772 3150 2772 3378 
Q 2772 3750 2511 3984 
Q 2250 4219 1831 4219 
Q 1534 4219 1204 4116 
Q 875 4013 500 3803 
L 500 4441 
Q 881 4594 1212 4672 
Q 1544 4750 1819 4750 
Q 2544 4750 2975 4387 
Q 3406 4025 3406 3419 
Q 3406 3131 3298 2873 
Q 3191 2616 2906 2266 
Q 2828 2175 2409 1742 
Q 1991 1309 1228 531 
z
" id="DejaVuSans-32" transform="scale(0.015625)"/>
       </defs>
       <use xlink:href="#DejaVuSans-32"/>
       <use x="63.623047" xlink:href="#DejaVuSans-30"/>
      </g>
     </g>
    </g>
    <g id="xtick_3">
     <g id="line2d_3">
      <g>
       <use style="stroke:#000000;stroke-width:0.8;" x="144.369697" xlink:href="#m22a34a0ac1" y="252"/>
      </g>
     </g>
     <g id="text_3">
      <!-- 30 -->
      <g transform="translate(138.007197 266.598437)scale(0.1 -0.1)">
       <defs>
        <path d="M 2597 2516 
Q 3050 2419 3304 2112 
Q 3559 1806 3559 1356 
Q 3559 666 3084 287 
Q 2609 -91 1734 -91 
Q 1441 -91 1130 -33 
Q 819 25 488 141 
L 488 750 
Q 750 597 1062 519 
Q 1375 441 1716 441 
Q 2309 441 2620 675 
Q 2931 909 2931 1356 
Q 2931 1769 2642 2001 
Q 2353 2234 1838 2234 
L 1294 2234 
L 1294 2753 
L 1863 2753 
Q 2328 2753 2575 2939 
Q 2822 3125 2822 3475 
Q 2822 3834 2567 4026 
Q 2313 4219 1838 4219 
Q 1578 4219 1281 4162 
Q 984 4106 628 3988 
L 628 4550 
Q 988 4650 1302 4700 
Q 1616 4750 1894 4750 
Q 2613 4750 3031 4423 
Q 3450 4097 3450 3541 
Q 3450 3153 3228 2886 
Q 3006 2619 2597 2516 
z
" id="DejaVuSans-33" transform="scale(0.015625)"/>
       </defs>
       <use xlink:href="#DejaVuSans-33"/>
       <use x="63.623047" xlink:href="#DejaVuSans-30"/>
      </g>
     </g>
    </g>
    <g id="xtick_4">
     <g id="line2d_4">
      <g>
       <use style="stroke:#000000;stroke-width:0.8;" x="181.945455" xlink:href="#m22a34a0ac1" y="252"/>
      </g>
     </g>
     <g id="text_4">
      <!-- 40 -->
      <g transform="translate(175.582955 266.598437)scale(0.1 -0.1)">
       <defs>
        <path d="M 2419 4116 
L 825 1625 
L 2419 1625 
L 2419 4116 
z
M 2253 4666 
L 3047 4666 
L 3047 1625 
L 3713 1625 
L 3713 1100 
L 3047 1100 
L 3047 0 
L 2419 0 
L 2419 1100 
L 313 1100 
L 313 1709 
L 2253 4666 
z
" id="DejaVuSans-34" transform="scale(0.015625)"/>
       </defs>
       <use xlink:href="#DejaVuSans-34"/>
       <use x="63.623047" xlink:href="#DejaVuSans-30"/>
      </g>
     </g>
    </g>
    <g id="xtick_5">
     <g id="line2d_5">
      <g>
       <use style="stroke:#000000;stroke-width:0.8;" x="219.521212" xlink:href="#m22a34a0ac1" y="252"/>
      </g>
     </g>
     <g id="text_5">
      <!-- 50 -->
      <g transform="translate(213.158712 266.598437)scale(0.1 -0.1)">
       <defs>
        <path d="M 691 4666 
L 3169 4666 
L 3169 4134 
L 1269 4134 
L 1269 2991 
Q 1406 3038 1543 3061 
Q 1681 3084 1819 3084 
Q 2600 3084 3056 2656 
Q 3513 2228 3513 1497 
Q 3513 744 3044 326 
Q 2575 -91 1722 -91 
Q 1428 -91 1123 -41 
Q 819 9 494 109 
L 494 744 
Q 775 591 1075 516 
Q 1375 441 1709 441 
Q 2250 441 2565 725 
Q 2881 1009 2881 1497 
Q 2881 1984 2565 2268 
Q 2250 2553 1709 2553 
Q 1456 2553 1204 2497 
Q 953 2441 691 2322 
L 691 4666 
z
" id="DejaVuSans-35" transform="scale(0.015625)"/>
       </defs>
       <use xlink:href="#DejaVuSans-35"/>
       <use x="63.623047" xlink:href="#DejaVuSans-30"/>
      </g>
     </g>
    </g>
    <g id="xtick_6">
     <g id="line2d_6">
      <g>
       <use style="stroke:#000000;stroke-width:0.8;" x="257.09697" xlink:href="#m22a34a0ac1" y="252"/>
      </g>
     </g>
     <g id="text_6">
      <!-- 60 -->
      <g transform="translate(250.73447 266.598437)scale(0.1 -0.1)">
       <defs>
        <path d="M 2113 2584 
Q 1688 2584 1439 2293 
Q 1191 2003 1191 1497 
Q 1191 994 1439 701 
Q 1688 409 2113 409 
Q 2538 409 2786 701 
Q 3034 994 3034 1497 
Q 3034 2003 2786 2293 
Q 2538 2584 2113 2584 
z
M 3366 4563 
L 3366 3988 
Q 3128 4100 2886 4159 
Q 2644 4219 2406 4219 
Q 1781 4219 1451 3797 
Q 1122 3375 1075 2522 
Q 1259 2794 1537 2939 
Q 1816 3084 2150 3084 
Q 2853 3084 3261 2657 
Q 3669 2231 3669 1497 
Q 3669 778 3244 343 
Q 2819 -91 2113 -91 
Q 1303 -91 875 529 
Q 447 1150 447 2328 
Q 447 3434 972 4092 
Q 1497 4750 2381 4750 
Q 2619 4750 2861 4703 
Q 3103 4656 3366 4563 
z
" id="DejaVuSans-36" transform="scale(0.015625)"/>
       </defs>
       <use xlink:href="#DejaVuSans-36"/>
       <use x="63.623047" xlink:href="#DejaVuSans-30"/>
      </g>
     </g>
    </g>
    <g id="xtick_7">
     <g id="line2d_7">
      <g>
       <use style="stroke:#000000;stroke-width:0.8;" x="294.672727" xlink:href="#m22a34a0ac1" y="252"/>
      </g>
     </g>
     <g id="text_7">
      <!-- 70 -->
      <g transform="translate(288.310227 266.598437)scale(0.1 -0.1)">
       <defs>
        <path d="M 525 4666 
L 3525 4666 
L 3525 4397 
L 1831 0 
L 1172 0 
L 2766 4134 
L 525 4134 
L 525 4666 
z
" id="DejaVuSans-37" transform="scale(0.015625)"/>
       </defs>
       <use xlink:href="#DejaVuSans-37"/>
       <use x="63.623047" xlink:href="#DejaVuSans-30"/>
      </g>
     </g>
    </g>
    <g id="xtick_8">
     <g id="line2d_8">
      <g>
       <use style="stroke:#000000;stroke-width:0.8;" x="332.248485" xlink:href="#m22a34a0ac1" y="252"/>
      </g>
     </g>
     <g id="text_8">
      <!-- 80 -->
      <g transform="translate(325.885985 266.598437)scale(0.1 -0.1)">
       <defs>
        <path d="M 2034 2216 
Q 1584 2216 1326 1975 
Q 1069 1734 1069 1313 
Q 1069 891 1326 650 
Q 1584 409 2034 409 
Q 2484 409 2743 651 
Q 3003 894 3003 1313 
Q 3003 1734 2745 1975 
Q 2488 2216 2034 2216 
z
M 1403 2484 
Q 997 2584 770 2862 
Q 544 3141 544 3541 
Q 544 4100 942 4425 
Q 1341 4750 2034 4750 
Q 2731 4750 3128 4425 
Q 3525 4100 3525 3541 
Q 3525 3141 3298 2862 
Q 3072 2584 2669 2484 
Q 3125 2378 3379 2068 
Q 3634 1759 3634 1313 
Q 3634 634 3220 271 
Q 2806 -91 2034 -91 
Q 1263 -91 848 271 
Q 434 634 434 1313 
Q 434 1759 690 2068 
Q 947 2378 1403 2484 
z
M 1172 3481 
Q 1172 3119 1398 2916 
Q 1625 2713 2034 2713 
Q 2441 2713 2670 2916 
Q 2900 3119 2900 3481 
Q 2900 3844 2670 4047 
Q 2441 4250 2034 4250 
Q 1625 4250 1398 4047 
Q 1172 3844 1172 3481 
z
" id="DejaVuSans-38" transform="scale(0.015625)"/>
       </defs>
       <use xlink:href="#DejaVuSans-38"/>
       <use x="63.623047" xlink:href="#DejaVuSans-30"/>
      </g>
     </g>
    </g>
    <g id="xtick_9">
     <g id="line2d_9">
      <g>
       <use style="stroke:#000000;stroke-width:0.8;" x="369.824242" xlink:href="#m22a34a0ac1" y="252"/>
      </g>
     </g>
     <g id="text_9">
      <!-- 90 -->
      <g transform="translate(363.461742 266.598437)scale(0.1 -0.1)">
       <defs>
        <path d="M 703 97 
L 703 672 
Q 941 559 1184 500 
Q 1428 441 1663 441 
Q 2288 441 2617 861 
Q 2947 1281 2994 2138 
Q 2813 1869 2534 1725 
Q 2256 1581 1919 1581 
Q 1219 1581 811 2004 
Q 403 2428 403 3163 
Q 403 3881 828 4315 
Q 1253 4750 1959 4750 
Q 2769 4750 3195 4129 
Q 3622 3509 3622 2328 
Q 3622 1225 3098 567 
Q 2575 -91 1691 -91 
Q 1453 -91 1209 -44 
Q 966 3 703 97 
z
M 1959 2075 
Q 2384 2075 2632 2365 
Q 2881 2656 2881 3163 
Q 2881 3666 2632 3958 
Q 2384 4250 1959 4250 
Q 1534 4250 1286 3958 
Q 1038 3666 1038 3163 
Q 1038 2656 1286 2365 
Q 1534 2075 1959 2075 
z
" id="DejaVuSans-39" transform="scale(0.015625)"/>
       </defs>
       <use xlink:href="#DejaVuSans-39"/>
       <use x="63.623047" xlink:href="#DejaVuSans-30"/>
      </g>
     </g>
    </g>
    <g id="text_10">
     <!-- week of 2020 -->
     <g transform="translate(187.539844 280.276563)scale(0.1 -0.1)">
      <defs>
       <path d="M 269 3500 
L 844 3500 
L 1563 769 
L 2278 3500 
L 2956 3500 
L 3675 769 
L 4391 3500 
L 4966 3500 
L 4050 0 
L 3372 0 
L 2619 2869 
L 1863 0 
L 1184 0 
L 269 3500 
z
" id="DejaVuSans-77" transform="scale(0.015625)"/>
       <path d="M 3597 1894 
L 3597 1613 
L 953 1613 
Q 991 1019 1311 708 
Q 1631 397 2203 397 
Q 2534 397 2845 478 
Q 3156 559 3463 722 
L 3463 178 
Q 3153 47 2828 -22 
Q 2503 -91 2169 -91 
Q 1331 -91 842 396 
Q 353 884 353 1716 
Q 353 2575 817 3079 
Q 1281 3584 2069 3584 
Q 2775 3584 3186 3129 
Q 3597 2675 3597 1894 
z
M 3022 2063 
Q 3016 2534 2758 2815 
Q 2500 3097 2075 3097 
Q 1594 3097 1305 2825 
Q 1016 2553 972 2059 
L 3022 2063 
z
" id="DejaVuSans-65" transform="scale(0.015625)"/>
       <path d="M 581 4863 
L 1159 4863 
L 1159 1991 
L 2875 3500 
L 3609 3500 
L 1753 1863 
L 3688 0 
L 2938 0 
L 1159 1709 
L 1159 0 
L 581 0 
L 581 4863 
z
" id="DejaVuSans-6b" transform="scale(0.015625)"/>
       <path id="DejaVuSans-20" transform="scale(0.015625)"/>
       <path d="M 1959 3097 
Q 1497 3097 1228 2736 
Q 959 2375 959 1747 
Q 959 1119 1226 758 
Q 1494 397 1959 397 
Q 2419 397 2687 759 
Q 2956 1122 2956 1747 
Q 2956 2369 2687 2733 
Q 2419 3097 1959 3097 
z
M 1959 3584 
Q 2709 3584 3137 3096 
Q 3566 2609 3566 1747 
Q 3566 888 3137 398 
Q 2709 -91 1959 -91 
Q 1206 -91 779 398 
Q 353 888 353 1747 
Q 353 2609 779 3096 
Q 1206 3584 1959 3584 
z
" id="DejaVuSans-6f" transform="scale(0.015625)"/>
       <path d="M 2375 4863 
L 2375 4384 
L 1825 4384 
Q 1516 4384 1395 4259 
Q 1275 4134 1275 3809 
L 1275 3500 
L 2222 3500 
L 2222 3053 
L 1275 3053 
L 1275 0 
L 697 0 
L 697 3053 
L 147 3053 
L 147 3500 
L 697 3500 
L 697 3744 
Q 697 4328 969 4595 
Q 1241 4863 1831 4863 
L 2375 4863 
z
" id="DejaVuSans-66" transform="scale(0.015625)"/>
      </defs>
      <use xlink:href="#DejaVuSans-77"/>
      <use x="81.787109" xlink:href="#DejaVuSans-65"/>
      <use x="143.310547" xlink:href="#DejaVuSans-65"/>
      <use x="204.833984" xlink:href="#DejaVuSans-6b"/>
      <use x="262.744141" xlink:href="#DejaVuSans-20"/>
      <use x="294.53125" xlink:href="#DejaVuSans-6f"/>
      <use x="355.712891" xlink:href="#DejaVuSans-66"/>
      <use x="390.917969" xlink:href="#DejaVuSans-20"/>
      <use x="422.705078" xlink:href="#DejaVuSans-32"/>
      <use x="486.328125" xlink:href="#DejaVuSans-30"/>
      <use x="549.951172" xlink:href="#DejaVuSans-32"/>
      <use x="613.574219" xlink:href="#DejaVuSans-30"/>
     </g>
    </g>
   </g>
   <g id="matplotlib.axis_2">
    <g id="ytick_1">
     <g id="line2d_10">
      <defs>
       <path d="M 0 0 
L -3.5 0 
" id="m2fab2a2fe2" style="stroke:#000000;stroke-width:0.8;"/>
      </defs>
      <g>
       <use style="stroke:#000000;stroke-width:0.8;" x="54" xlink:href="#m2fab2a2fe2" y="250.71083"/>
      </g>
     </g>
     <g id="text_11">
      <!-- 0.00 -->
      <g transform="translate(24.734375 254.510049)scale(0.1 -0.1)">
       <defs>
        <path d="M 684 794 
L 1344 794 
L 1344 0 
L 684 0 
L 684 794 
z
" id="DejaVuSans-2e" transform="scale(0.015625)"/>
       </defs>
       <use xlink:href="#DejaVuSans-30"/>
       <use x="63.623047" xlink:href="#DejaVuSans-2e"/>
       <use x="95.410156" xlink:href="#DejaVuSans-30"/>
       <use x="159.033203" xlink:href="#DejaVuSans-30"/>
      </g>
     </g>
    </g>
    <g id="ytick_2">
     <g id="line2d_11">
      <g>
       <use style="stroke:#000000;stroke-width:0.8;" x="54" xlink:href="#m2fab2a2fe2" y="224.927431"/>
      </g>
     </g>
     <g id="text_12">
      <!-- 0.25 -->
      <g transform="translate(24.734375 228.72665)scale(0.1 -0.1)">
       <use xlink:href="#DejaVuSans-30"/>
       <use x="63.623047" xlink:href="#DejaVuSans-2e"/>
       <use x="95.410156" xlink:href="#DejaVuSans-32"/>
       <use x="159.033203" xlink:href="#DejaVuSans-35"/>
      </g>
     </g>
    </g>
    <g id="ytick_3">
     <g id="line2d_12">
      <g>
       <use style="stroke:#000000;stroke-width:0.8;" x="54" xlink:href="#m2fab2a2fe2" y="199.144032"/>
      </g>
     </g>
     <g id="text_13">
      <!-- 0.50 -->
      <g transform="translate(24.734375 202.94325)scale(0.1 -0.1)">
       <use xlink:href="#DejaVuSans-30"/>
       <use x="63.623047" xlink:href="#DejaVuSans-2e"/>
       <use x="95.410156" xlink:href="#DejaVuSans-35"/>
       <use x="159.033203" xlink:href="#DejaVuSans-30"/>
      </g>
     </g>
    </g>
    <g id="ytick_4">
     <g id="line2d_13">
      <g>
       <use style="stroke:#000000;stroke-width:0.8;" x="54" xlink:href="#m2fab2a2fe2" y="173.360632"/>
      </g>
     </g>
     <g id="text_14">
      <!-- 0.75 -->
      <g transform="translate(24.734375 177.159851)scale(0.1 -0.1)">
       <use xlink:href="#DejaVuSans-30"/>
       <use x="63.623047" xlink:href="#DejaVuSans-2e"/>
       <use x="95.410156" xlink:href="#DejaVuSans-37"/>
       <use x="159.033203" xlink:href="#DejaVuSans-35"/>
      </g>
     </g>
    </g>
    <g id="ytick_5">
     <g id="line2d_14">
      <g>
       <use style="stroke:#000000;stroke-width:0.8;" x="54" xlink:href="#m2fab2a2fe2" y="147.577233"/>
      </g>
     </g>
     <g id="text_15">
      <!-- 1.00 -->
      <g transform="translate(24.734375 151.376452)scale(0.1 -0.1)">
       <use xlink:href="#DejaVuSans-31"/>
       <use x="63.623047" xlink:href="#DejaVuSans-2e"/>
       <use x="95.410156" xlink:href="#DejaVuSans-30"/>
       <use x="159.033203" xlink:href="#DejaVuSans-30"/>
      </g>
     </g>
    </g>
    <g id="ytick_6">
     <g id="line2d_15">
      <g>
       <use style="stroke:#000000;stroke-width:0.8;" x="54" xlink:href="#m2fab2a2fe2" y="121.793834"/>
      </g>
     </g>
     <g id="text_16">
      <!-- 1.25 -->
      <g transform="translate(24.734375 125.593053)scale(0.1 -0.1)">
       <use xlink:href="#DejaVuSans-31"/>
       <use x="63.623047" xlink:href="#DejaVuSans-2e"/>
       <use x="95.410156" xlink:href="#DejaVuSans-32"/>
       <use x="159.033203" xlink:href="#DejaVuSans-35"/>
      </g>
     </g>
    </g>
    <g id="ytick_7">
     <g id="line2d_16">
      <g>
       <use style="stroke:#000000;stroke-width:0.8;" x="54" xlink:href="#m2fab2a2fe2" y="96.010435"/>
      </g>
     </g>
     <g id="text_17">
      <!-- 1.50 -->
      <g transform="translate(24.734375 99.809654)scale(0.1 -0.1)">
       <use xlink:href="#DejaVuSans-31"/>
       <use x="63.623047" xlink:href="#DejaVuSans-2e"/>
       <use x="95.410156" xlink:href="#DejaVuSans-35"/>
       <use x="159.033203" xlink:href="#DejaVuSans-30"/>
      </g>
     </g>
    </g>
    <g id="ytick_8">
     <g id="line2d_17">
      <g>
       <use style="stroke:#000000;stroke-width:0.8;" x="54" xlink:href="#m2fab2a2fe2" y="70.227036"/>
      </g>
     </g>
     <g id="text_18">
      <!-- 1.75 -->
      <g transform="translate(24.734375 74.026254)scale(0.1 -0.1)">
       <use xlink:href="#DejaVuSans-31"/>
       <use x="63.623047" xlink:href="#DejaVuSans-2e"/>
       <use x="95.410156" xlink:href="#DejaVuSans-37"/>
       <use x="159.033203" xlink:href="#DejaVuSans-35"/>
      </g>
     </g>
    </g>
    <g id="ytick_9">
     <g id="line2d_18">
      <g>
       <use style="stroke:#000000;stroke-width:0.8;" x="54" xlink:href="#m2fab2a2fe2" y="44.443636"/>
      </g>
     </g>
     <g id="text_19">
      <!-- 2.00 -->
      <g transform="translate(24.734375 48.242855)scale(0.1 -0.1)">
       <use xlink:href="#DejaVuSans-32"/>
       <use x="63.623047" xlink:href="#DejaVuSans-2e"/>
       <use x="95.410156" xlink:href="#DejaVuSans-30"/>
       <use x="159.033203" xlink:href="#DejaVuSans-30"/>
      </g>
     </g>
    </g>
   </g>
   <g id="line2d_19">
    <path clip-path="url(#pd7ec722703)" d="M 69.218182 156.1717 
L 72.975758 71.454816 
L 76.733333 114.080851 
L 80.490909 143.626063 
L 84.248485 176.526093 
L 88.006061 188.194711 
L 91.763636 195.37299 
L 95.521212 197.378909 
L 99.278788 188.191791 
L 103.036364 178.724964 
L 106.793939 197.04782 
L 110.551515 187.759154 
L 114.309091 177.695894 
L 118.066667 186.930843 
L 121.824242 183.082242 
L 125.581818 155.894459 
L 129.339394 169.821734 
L 133.09697 172.834441 
L 136.854545 91.829343 
L 140.612121 77.89237 
L 144.369697 123.310505 
L 148.127273 148.723162 
L 151.884848 116.637154 
L 155.642424 150.123742 
L 159.4 94.398972 
L 163.157576 60.945012 
L 166.915152 70.227036 
L 170.672727 132.732246 
L 174.430303 113.374765 
L 178.187879 120.820876 
L 181.945455 135.790536 
L 185.70303 122.833929 
L 189.460606 138.310854 
L 193.218182 149.54008 
L 196.975758 145.903813 
L 200.733333 154.967523 
L 204.490909 160.944391 
L 208.248485 171.355454 
L 212.006061 181.702797 
L 215.763636 184.796245 
L 219.521212 186.76625 
L 223.278788 186.314792 
L 227.036364 188.813966 
L 230.793939 188.704496 
L 234.551515 185.623387 
L 238.309091 194.20096 
L 242.066667 191.647451 
L 245.824242 189.696679 
L 249.581818 183.070411 
L 253.339394 179.719262 
L 257.09697 168.007409 
L 260.854545 155.349956 
L 264.612121 147.311082 
L 268.369697 136.810539 
L 272.127273 114.119177 
L 275.884848 113.070127 
L 279.642424 92.550856 
L 283.4 85.276122 
L 287.157576 82.83406 
L 290.915152 78.855489 
L 294.672727 64.617732 
L 298.430303 76.653983 
L 302.187879 72.214681 
L 305.945455 89.834325 
L 309.70303 93.310602 
L 313.460606 83.241513 
L 317.218182 107.654551 
L 320.975758 67.362213 
L 324.733333 67.648696 
L 328.490909 68.870015 
L 332.248485 118.430782 
L 336.006061 109.691422 
L 339.763636 111.824253 
L 343.521212 93.1977 
L 347.278788 148.762677 
L 351.036364 117.085561 
L 354.793939 114.128499 
L 358.551515 117.586501 
L 362.309091 137.493059 
L 366.066667 148.328206 
L 369.824242 152.389267 
L 373.581818 141.547884 
" style="fill:none;stroke:#1f77b4;stroke-linecap:square;stroke-width:1.5;"/>
   </g>
   <g id="line2d_20">
    <path clip-path="url(#pd7ec722703)" d="M 69.218182 44.443636 
L 72.975758 111.971587 
L 76.733333 124.879027 
L 80.490909 137.658991 
L 84.248485 156.771517 
L 88.006061 171.875725 
L 91.763636 175.728496 
L 95.521212 176.575677 
L 99.278788 171.078916 
L 103.036364 155.537209 
L 106.793939 177.762676 
L 110.551515 180.392469 
L 114.309091 175.870521 
L 118.066667 172.003611 
L 121.824242 172.937954 
L 125.581818 142.586898 
L 129.339394 133.421641 
L 133.09697 166.520139 
L 136.854545 139.21505 
L 140.612121 128.065472 
L 144.369697 135.443869 
L 148.127273 169.349881 
L 151.884848 169.67729 
L 155.642424 160.309776 
L 159.4 142.742846 
L 163.157576 108.386466 
L 166.915152 121.793834 
L 170.672727 135.857506 
L 174.430303 155.996302 
L 178.187879 137.361169 
L 181.945455 149.869091 
L 185.70303 140.351312 
L 189.460606 142.041474 
L 193.218182 159.298235 
L 196.975758 154.525564 
L 200.733333 159.02317 
L 204.490909 161.542109 
L 208.248485 170.716636 
L 212.006061 175.344803 
L 215.763636 175.571991 
L 219.521212 177.770855 
L 223.278788 176.558573 
L 227.036364 179.681185 
L 230.793939 181.058851 
L 234.551515 180.551463 
L 238.309091 184.237703 
L 242.066667 184.760271 
L 245.824242 181.454848 
L 249.581818 178.609162 
L 253.339394 174.137173 
L 257.09697 162.162827 
L 260.854545 159.642356 
L 264.612121 159.886727 
L 268.369697 160.988379 
L 272.127273 141.828426 
L 275.884848 143.02152 
L 279.642424 132.213433 
L 283.4 126.950514 
L 287.157576 124.896208 
L 290.915152 123.922271 
L 294.672727 113.630438 
L 298.430303 124.81828 
L 302.187879 123.053609 
L 305.945455 135.671479 
L 309.70303 140.557669 
L 313.460606 127.932739 
L 317.218182 147.577233 
L 320.975758 154.125398 
L 324.733333 121.793834 
L 328.490909 125.864897 
L 332.248485 149.819268 
L 336.006061 149.682 
L 339.763636 162.703494 
L 343.521212 156.953015 
L 347.278788 178.398768 
L 351.036364 148.922454 
L 354.793939 150.713052 
L 358.551515 161.817437 
L 362.309091 168.356743 
L 366.066667 176.74001 
L 369.824242 176.449438 
L 373.581818 161.85727 
" style="fill:none;stroke:#ff7f0e;stroke-linecap:square;stroke-width:1.5;"/>
   </g>
   <g id="line2d_21">
    <path clip-path="url(#pd7ec722703)" d="M 69.218182 199.144032 
L 72.975758 204.055155 
L 76.733333 202.669967 
L 80.490909 191.443282 
L 84.248485 174.477081 
L 88.006061 165.456123 
L 91.763636 169.67729 
L 95.521212 164.850219 
L 99.278788 176.783208 
L 103.036364 160.036325 
L 106.793939 175.666465 
L 110.551515 166.998495 
L 114.309091 173.132461 
L 118.066667 181.502758 
L 121.824242 164.48438 
L 125.581818 172.52891 
L 129.339394 183.977326 
L 133.09697 191.777346 
L 136.854545 194.96294 
L 140.612121 181.025967 
L 144.369697 181.955099 
L 148.127273 203.727747 
L 151.884848 193.250683 
L 155.642424 179.40859 
L 159.4 213.647194 
L 163.157576 182.642656 
L 166.915152 207.738498 
L 170.672727 184.299044 
L 174.430303 197.565456 
L 178.187879 191.846843 
L 181.945455 196.68847 
L 185.70303 183.48787 
L 189.460606 181.513843 
L 193.218182 186.1612 
L 196.975758 185.738483 
L 200.733333 182.095294 
L 204.490909 173.795337 
L 208.248485 170.834936 
L 212.006061 162.196296 
L 215.763636 163.658119 
L 219.521212 164.576636 
L 223.278788 164.066616 
L 227.036364 169.657401 
L 230.793939 166.834045 
L 234.551515 169.102638 
L 238.309091 165.005222 
L 242.066667 164.814531 
L 245.824242 168.956788 
L 249.581818 166.176708 
L 253.339394 176.433032 
L 257.09697 175.14504 
L 260.854545 180.930337 
L 264.612121 186.568387 
L 268.369697 191.65142 
L 272.127273 186.899073 
L 275.884848 189.644885 
L 279.642424 185.768808 
L 283.4 194.303067 
L 287.157576 194.937817 
L 290.915152 190.757736 
L 294.672727 186.696873 
L 298.430303 186.063304 
L 302.187879 181.283219 
L 305.945455 186.270935 
L 309.70303 186.994786 
L 313.460606 173.115076 
L 317.218182 190.826806 
L 320.975758 168.858769 
L 324.733333 144.998893 
L 328.490909 180.145737 
L 332.248485 183.449789 
L 336.006061 164.415371 
L 339.763636 181.955099 
L 343.521212 188.830672 
L 347.278788 200.329475 
L 351.036364 184.795009 
L 354.793939 173.709057 
L 358.551515 179.294051 
L 362.309091 183.635794 
L 366.066667 186.878143 
L 369.824242 183.472407 
L 373.581818 180.421317 
" style="fill:none;stroke:#2ca02c;stroke-linecap:square;stroke-width:1.5;"/>
   </g>
   <g id="line2d_22">
    <path clip-path="url(#pd7ec722703)" d="M 69.218182 242.116364 
L 72.975758 234.749678 
L 76.733333 228.232995 
L 80.490909 216.521115 
L 84.248485 189.240474 
L 88.006061 176.13546 
L 91.763636 176.254687 
L 95.521212 177.332158 
L 99.278788 185.910075 
L 103.036364 179.763221 
L 106.793939 191.597671 
L 110.551515 181.731866 
L 114.309091 184.997388 
L 118.066667 193.715948 
L 121.824242 172.937954 
L 125.581818 189.163361 
L 129.339394 194.088463 
L 133.09697 200.196415 
L 136.854545 211.687307 
L 140.612121 175.451178 
L 144.369697 216.332964 
L 148.127273 206.019605 
L 151.884848 209.457391 
L 155.642424 218.879473 
L 159.4 221.704506 
L 163.157576 192.956016 
L 166.915152 209.457391 
L 170.672727 215.551649 
L 174.430303 211.772635 
L 178.187879 204.981782 
L 181.945455 211.749249 
L 185.70303 210.858782 
L 189.460606 198.12112 
L 193.218182 200.966675 
L 196.975758 197.52518 
L 200.733333 199.038885 
L 204.490909 187.950396 
L 208.248485 178.264151 
L 212.006061 174.674402 
L 215.763636 171.291331 
L 219.521212 171.953735 
L 223.278788 176.121355 
L 227.036364 177.829569 
L 230.793939 175.921698 
L 234.551515 178.022228 
L 238.309091 173.318219 
L 242.066667 174.468192 
L 245.824242 180.003302 
L 249.581818 187.334841 
L 253.339394 192.233946 
L 257.09697 195.730382 
L 260.854545 202.740366 
L 264.612121 210.122769 
L 268.369697 212.429251 
L 272.127273 214.033442 
L 275.884848 218.675441 
L 279.642424 216.659854 
L 283.4 212.982877 
L 287.157576 213.900641 
L 290.915152 210.181315 
L 294.672727 209.586712 
L 298.430303 209.805203 
L 302.187879 205.022983 
L 305.945455 209.338334 
L 309.70303 207.513512 
L 313.460606 187.357335 
L 317.218182 207.461257 
L 320.975758 178.681016 
L 324.733333 224.927431 
L 328.490909 234.426578 
L 332.248485 212.59624 
L 336.006061 208.615484 
L 339.763636 216.332964 
L 343.521212 197.268875 
L 347.278788 211.59119 
L 351.036364 192.866334 
L 354.793939 202.27985 
L 358.551515 201.94892 
L 362.309091 199.373217 
L 366.066667 206.153111 
L 369.824242 199.209059 
L 373.581818 196.446691 
" style="fill:none;stroke:#d62728;stroke-linecap:square;stroke-width:1.5;"/>
   </g>
   <g id="patch_3">
    <path d="M 54 252 
L 54 34.56 
" style="fill:none;stroke:#000000;stroke-linecap:square;stroke-linejoin:miter;stroke-width:0.8;"/>
   </g>
   <g id="patch_4">
    <path d="M 388.8 252 
L 388.8 34.56 
" style="fill:none;stroke:#000000;stroke-linecap:square;stroke-linejoin:miter;stroke-width:0.8;"/>
   </g>
   <g id="patch_5">
    <path d="M 54 252 
L 388.8 252 
" style="fill:none;stroke:#000000;stroke-linecap:square;stroke-linejoin:miter;stroke-width:0.8;"/>
   </g>
   <g id="patch_6">
    <path d="M 54 34.56 
L 388.8 34.56 
" style="fill:none;stroke:#000000;stroke-linecap:square;stroke-linejoin:miter;stroke-width:0.8;"/>
   </g>
   <g id="text_20">
    <!-- Age Groups relative to 80-84 -->
    <g transform="translate(134.690625 28.56)scale(0.12 -0.12)">
     <defs>
      <path d="M 2188 4044 
L 1331 1722 
L 3047 1722 
L 2188 4044 
z
M 1831 4666 
L 2547 4666 
L 4325 0 
L 3669 0 
L 3244 1197 
L 1141 1197 
L 716 0 
L 50 0 
L 1831 4666 
z
" id="DejaVuSans-41" transform="scale(0.015625)"/>
      <path d="M 2906 1791 
Q 2906 2416 2648 2759 
Q 2391 3103 1925 3103 
Q 1463 3103 1205 2759 
Q 947 2416 947 1791 
Q 947 1169 1205 825 
Q 1463 481 1925 481 
Q 2391 481 2648 825 
Q 2906 1169 2906 1791 
z
M 3481 434 
Q 3481 -459 3084 -895 
Q 2688 -1331 1869 -1331 
Q 1566 -1331 1297 -1286 
Q 1028 -1241 775 -1147 
L 775 -588 
Q 1028 -725 1275 -790 
Q 1522 -856 1778 -856 
Q 2344 -856 2625 -561 
Q 2906 -266 2906 331 
L 2906 616 
Q 2728 306 2450 153 
Q 2172 0 1784 0 
Q 1141 0 747 490 
Q 353 981 353 1791 
Q 353 2603 747 3093 
Q 1141 3584 1784 3584 
Q 2172 3584 2450 3431 
Q 2728 3278 2906 2969 
L 2906 3500 
L 3481 3500 
L 3481 434 
z
" id="DejaVuSans-67" transform="scale(0.015625)"/>
      <path d="M 3809 666 
L 3809 1919 
L 2778 1919 
L 2778 2438 
L 4434 2438 
L 4434 434 
Q 4069 175 3628 42 
Q 3188 -91 2688 -91 
Q 1594 -91 976 548 
Q 359 1188 359 2328 
Q 359 3472 976 4111 
Q 1594 4750 2688 4750 
Q 3144 4750 3555 4637 
Q 3966 4525 4313 4306 
L 4313 3634 
Q 3963 3931 3569 4081 
Q 3175 4231 2741 4231 
Q 1884 4231 1454 3753 
Q 1025 3275 1025 2328 
Q 1025 1384 1454 906 
Q 1884 428 2741 428 
Q 3075 428 3337 486 
Q 3600 544 3809 666 
z
" id="DejaVuSans-47" transform="scale(0.015625)"/>
      <path d="M 2631 2963 
Q 2534 3019 2420 3045 
Q 2306 3072 2169 3072 
Q 1681 3072 1420 2755 
Q 1159 2438 1159 1844 
L 1159 0 
L 581 0 
L 581 3500 
L 1159 3500 
L 1159 2956 
Q 1341 3275 1631 3429 
Q 1922 3584 2338 3584 
Q 2397 3584 2469 3576 
Q 2541 3569 2628 3553 
L 2631 2963 
z
" id="DejaVuSans-72" transform="scale(0.015625)"/>
      <path d="M 544 1381 
L 544 3500 
L 1119 3500 
L 1119 1403 
Q 1119 906 1312 657 
Q 1506 409 1894 409 
Q 2359 409 2629 706 
Q 2900 1003 2900 1516 
L 2900 3500 
L 3475 3500 
L 3475 0 
L 2900 0 
L 2900 538 
Q 2691 219 2414 64 
Q 2138 -91 1772 -91 
Q 1169 -91 856 284 
Q 544 659 544 1381 
z
M 1991 3584 
L 1991 3584 
z
" id="DejaVuSans-75" transform="scale(0.015625)"/>
      <path d="M 1159 525 
L 1159 -1331 
L 581 -1331 
L 581 3500 
L 1159 3500 
L 1159 2969 
Q 1341 3281 1617 3432 
Q 1894 3584 2278 3584 
Q 2916 3584 3314 3078 
Q 3713 2572 3713 1747 
Q 3713 922 3314 415 
Q 2916 -91 2278 -91 
Q 1894 -91 1617 61 
Q 1341 213 1159 525 
z
M 3116 1747 
Q 3116 2381 2855 2742 
Q 2594 3103 2138 3103 
Q 1681 3103 1420 2742 
Q 1159 2381 1159 1747 
Q 1159 1113 1420 752 
Q 1681 391 2138 391 
Q 2594 391 2855 752 
Q 3116 1113 3116 1747 
z
" id="DejaVuSans-70" transform="scale(0.015625)"/>
      <path d="M 2834 3397 
L 2834 2853 
Q 2591 2978 2328 3040 
Q 2066 3103 1784 3103 
Q 1356 3103 1142 2972 
Q 928 2841 928 2578 
Q 928 2378 1081 2264 
Q 1234 2150 1697 2047 
L 1894 2003 
Q 2506 1872 2764 1633 
Q 3022 1394 3022 966 
Q 3022 478 2636 193 
Q 2250 -91 1575 -91 
Q 1294 -91 989 -36 
Q 684 19 347 128 
L 347 722 
Q 666 556 975 473 
Q 1284 391 1588 391 
Q 1994 391 2212 530 
Q 2431 669 2431 922 
Q 2431 1156 2273 1281 
Q 2116 1406 1581 1522 
L 1381 1569 
Q 847 1681 609 1914 
Q 372 2147 372 2553 
Q 372 3047 722 3315 
Q 1072 3584 1716 3584 
Q 2034 3584 2315 3537 
Q 2597 3491 2834 3397 
z
" id="DejaVuSans-73" transform="scale(0.015625)"/>
      <path d="M 603 4863 
L 1178 4863 
L 1178 0 
L 603 0 
L 603 4863 
z
" id="DejaVuSans-6c" transform="scale(0.015625)"/>
      <path d="M 2194 1759 
Q 1497 1759 1228 1600 
Q 959 1441 959 1056 
Q 959 750 1161 570 
Q 1363 391 1709 391 
Q 2188 391 2477 730 
Q 2766 1069 2766 1631 
L 2766 1759 
L 2194 1759 
z
M 3341 1997 
L 3341 0 
L 2766 0 
L 2766 531 
Q 2569 213 2275 61 
Q 1981 -91 1556 -91 
Q 1019 -91 701 211 
Q 384 513 384 1019 
Q 384 1609 779 1909 
Q 1175 2209 1959 2209 
L 2766 2209 
L 2766 2266 
Q 2766 2663 2505 2880 
Q 2244 3097 1772 3097 
Q 1472 3097 1187 3025 
Q 903 2953 641 2809 
L 641 3341 
Q 956 3463 1253 3523 
Q 1550 3584 1831 3584 
Q 2591 3584 2966 3190 
Q 3341 2797 3341 1997 
z
" id="DejaVuSans-61" transform="scale(0.015625)"/>
      <path d="M 1172 4494 
L 1172 3500 
L 2356 3500 
L 2356 3053 
L 1172 3053 
L 1172 1153 
Q 1172 725 1289 603 
Q 1406 481 1766 481 
L 2356 481 
L 2356 0 
L 1766 0 
Q 1100 0 847 248 
Q 594 497 594 1153 
L 594 3053 
L 172 3053 
L 172 3500 
L 594 3500 
L 594 4494 
L 1172 4494 
z
" id="DejaVuSans-74" transform="scale(0.015625)"/>
      <path d="M 603 3500 
L 1178 3500 
L 1178 0 
L 603 0 
L 603 3500 
z
M 603 4863 
L 1178 4863 
L 1178 4134 
L 603 4134 
L 603 4863 
z
" id="DejaVuSans-69" transform="scale(0.015625)"/>
      <path d="M 191 3500 
L 800 3500 
L 1894 563 
L 2988 3500 
L 3597 3500 
L 2284 0 
L 1503 0 
L 191 3500 
z
" id="DejaVuSans-76" transform="scale(0.015625)"/>
      <path d="M 313 2009 
L 1997 2009 
L 1997 1497 
L 313 1497 
L 313 2009 
z
" id="DejaVuSans-2d" transform="scale(0.015625)"/>
     </defs>
     <use xlink:href="#DejaVuSans-41"/>
     <use x="68.408203" xlink:href="#DejaVuSans-67"/>
     <use x="131.884766" xlink:href="#DejaVuSans-65"/>
     <use x="193.408203" xlink:href="#DejaVuSans-20"/>
     <use x="225.195312" xlink:href="#DejaVuSans-47"/>
     <use x="302.685547" xlink:href="#DejaVuSans-72"/>
     <use x="341.548828" xlink:href="#DejaVuSans-6f"/>
     <use x="402.730469" xlink:href="#DejaVuSans-75"/>
     <use x="466.109375" xlink:href="#DejaVuSans-70"/>
     <use x="529.585938" xlink:href="#DejaVuSans-73"/>
     <use x="581.685547" xlink:href="#DejaVuSans-20"/>
     <use x="613.472656" xlink:href="#DejaVuSans-72"/>
     <use x="652.335938" xlink:href="#DejaVuSans-65"/>
     <use x="713.859375" xlink:href="#DejaVuSans-6c"/>
     <use x="741.642578" xlink:href="#DejaVuSans-61"/>
     <use x="802.921875" xlink:href="#DejaVuSans-74"/>
     <use x="842.130859" xlink:href="#DejaVuSans-69"/>
     <use x="869.914062" xlink:href="#DejaVuSans-76"/>
     <use x="929.09375" xlink:href="#DejaVuSans-65"/>
     <use x="990.617188" xlink:href="#DejaVuSans-20"/>
     <use x="1022.404297" xlink:href="#DejaVuSans-74"/>
     <use x="1061.613281" xlink:href="#DejaVuSans-6f"/>
     <use x="1122.794922" xlink:href="#DejaVuSans-20"/>
     <use x="1154.582031" xlink:href="#DejaVuSans-38"/>
     <use x="1218.205078" xlink:href="#DejaVuSans-30"/>
     <use x="1281.828125" xlink:href="#DejaVuSans-2d"/>
     <use x="1317.912109" xlink:href="#DejaVuSans-38"/>
     <use x="1381.535156" xlink:href="#DejaVuSans-34"/>
    </g>
   </g>
   <g id="legend_1">
    <g id="patch_7">
     <path d="M 199.0375 101.2725 
L 243.7625 101.2725 
Q 245.7625 101.2725 245.7625 99.2725 
L 245.7625 41.56 
Q 245.7625 39.56 243.7625 39.56 
L 199.0375 39.56 
Q 197.0375 39.56 197.0375 41.56 
L 197.0375 99.2725 
Q 197.0375 101.2725 199.0375 101.2725 
z
" style="fill:#ffffff;opacity:0.8;stroke:#cccccc;stroke-linejoin:miter;"/>
    </g>
    <g id="line2d_23">
     <path d="M 201.0375 47.658437 
L 221.0375 47.658437 
" style="fill:none;stroke:#1f77b4;stroke-linecap:square;stroke-width:1.5;"/>
    </g>
    <g id="line2d_24"/>
    <g id="text_21">
     <!-- 70 -->
     <g transform="translate(229.0375 51.158437)scale(0.1 -0.1)">
      <use xlink:href="#DejaVuSans-37"/>
      <use x="63.623047" xlink:href="#DejaVuSans-30"/>
     </g>
    </g>
    <g id="line2d_25">
     <path d="M 201.0375 62.336562 
L 221.0375 62.336562 
" style="fill:none;stroke:#ff7f0e;stroke-linecap:square;stroke-width:1.5;"/>
    </g>
    <g id="line2d_26"/>
    <g id="text_22">
     <!-- 75 -->
     <g transform="translate(229.0375 65.836562)scale(0.1 -0.1)">
      <use xlink:href="#DejaVuSans-37"/>
      <use x="63.623047" xlink:href="#DejaVuSans-35"/>
     </g>
    </g>
    <g id="line2d_27">
     <path d="M 201.0375 77.014687 
L 221.0375 77.014687 
" style="fill:none;stroke:#2ca02c;stroke-linecap:square;stroke-width:1.5;"/>
    </g>
    <g id="line2d_28"/>
    <g id="text_23">
     <!-- 85 -->
     <g transform="translate(229.0375 80.514687)scale(0.1 -0.1)">
      <use xlink:href="#DejaVuSans-38"/>
      <use x="63.623047" xlink:href="#DejaVuSans-35"/>
     </g>
    </g>
    <g id="line2d_29">
     <path d="M 201.0375 91.692813 
L 221.0375 91.692813 
" style="fill:none;stroke:#d62728;stroke-linecap:square;stroke-width:1.5;"/>
    </g>
    <g id="line2d_30"/>
    <g id="text_24">
     <!-- 90 -->
     <g transform="translate(229.0375 95.192813)scale(0.1 -0.1)">
      <use xlink:href="#DejaVuSans-39"/>
      <use x="63.623047" xlink:href="#DejaVuSans-30"/>
     </g>
    </g>
   </g>
  </g>
 </g>
 <defs>
  <clipPath id="pd7ec722703">
   <rect height="217.44" width="334.8" x="54" y="34.56"/>
  </clipPath>
 </defs>
</svg>
