<?xml version="1.0" encoding="utf-8" standalone="no"?>
<!DOCTYPE svg PUBLIC "-//W3C//DTD SVG 1.1//EN"
  "http://www.w3.org/Graphics/SVG/1.1/DTD/svg11.dtd">
<svg height="288pt" version="1.1" viewBox="0 0 432 288" width="432pt" xmlns="http://www.w3.org/2000/svg" xmlns:xlink="http://www.w3.org/1999/xlink">
 <metadata>
  <rdf:RDF xmlns:cc="http://creativecommons.org/ns#" xmlns:dc="http://purl.org/dc/elements/1.1/" xmlns:rdf="http://www.w3.org/1999/02/22-rdf-syntax-ns#">
   <cc:Work>
    <dc:type rdf:resource="http://purl.org/dc/dcmitype/StillImage"/>
    <dc:date>2021-12-17T19:23:42.067344</dc:date>
    <dc:format>image/svg+xml</dc:format>
    <dc:creator>
     <cc:Agent>
      <dc:title>Matplotlib v3.4.2, https://matplotlib.org/</dc:title>
     </cc:Agent>
    </dc:creator>
   </cc:Work>
  </rdf:RDF>
 </metadata>
 <defs>
  <style type="text/css">*{stroke-linecap:butt;stroke-linejoin:round;}</style>
 </defs>
 <g id="figure_1">
  <g id="patch_1">
   <path d="M 0 288 
L 432 288 
L 432 0 
L 0 0 
z
" style="fill:none;"/>
  </g>
  <g id="axes_1">
   <g id="patch_2">
    <path d="M 54 252 
L 388.8 252 
L 388.8 34.56 
L 54 34.56 
z
" style="fill:#ffffff;"/>
   </g>
   <g id="matplotlib.axis_1">
    <g id="xtick_1">
     <g id="line2d_1">
      <defs>
       <path d="M 0 0 
L 0 3.5 
" id="md2b6226d80" style="stroke:#000000;stroke-width:0.8;"/>
      </defs>
      <g>
       <use style="stroke:#000000;stroke-width:0.8;" x="102.301186" xlink:href="#md2b6226d80" y="252"/>
      </g>
     </g>
     <g id="text_1">
      <!-- 20 -->
      <g transform="translate(95.938686 266.598437)scale(0.1 -0.1)">
       <defs>
        <path d="M 1228 531 
L 3431 531 
L 3431 0 
L 469 0 
L 469 531 
Q 828 903 1448 1529 
Q 2069 2156 2228 2338 
Q 2531 2678 2651 2914 
Q 2772 3150 2772 3378 
Q 2772 3750 2511 3984 
Q 2250 4219 1831 4219 
Q 1534 4219 1204 4116 
Q 875 4013 500 3803 
L 500 4441 
Q 881 4594 1212 4672 
Q 1544 4750 1819 4750 
Q 2544 4750 2975 4387 
Q 3406 4025 3406 3419 
Q 3406 3131 3298 2873 
Q 3191 2616 2906 2266 
Q 2828 2175 2409 1742 
Q 1991 1309 1228 531 
z
" id="DejaVuSans-32" transform="scale(0.015625)"/>
        <path d="M 2034 4250 
Q 1547 4250 1301 3770 
Q 1056 3291 1056 2328 
Q 1056 1369 1301 889 
Q 1547 409 2034 409 
Q 2525 409 2770 889 
Q 3016 1369 3016 2328 
Q 3016 3291 2770 3770 
Q 2525 4250 2034 4250 
z
M 2034 4750 
Q 2819 4750 3233 4129 
Q 3647 3509 3647 2328 
Q 3647 1150 3233 529 
Q 2819 -91 2034 -91 
Q 1250 -91 836 529 
Q 422 1150 422 2328 
Q 422 3509 836 4129 
Q 1250 4750 2034 4750 
z
" id="DejaVuSans-30" transform="scale(0.015625)"/>
       </defs>
       <use xlink:href="#DejaVuSans-32"/>
       <use x="63.623047" xlink:href="#DejaVuSans-30"/>
      </g>
     </g>
    </g>
    <g id="xtick_2">
     <g id="line2d_2">
      <g>
       <use style="stroke:#000000;stroke-width:0.8;" x="168.467194" xlink:href="#md2b6226d80" y="252"/>
      </g>
     </g>
     <g id="text_2">
      <!-- 40 -->
      <g transform="translate(162.104694 266.598437)scale(0.1 -0.1)">
       <defs>
        <path d="M 2419 4116 
L 825 1625 
L 2419 1625 
L 2419 4116 
z
M 2253 4666 
L 3047 4666 
L 3047 1625 
L 3713 1625 
L 3713 1100 
L 3047 1100 
L 3047 0 
L 2419 0 
L 2419 1100 
L 313 1100 
L 313 1709 
L 2253 4666 
z
" id="DejaVuSans-34" transform="scale(0.015625)"/>
       </defs>
       <use xlink:href="#DejaVuSans-34"/>
       <use x="63.623047" xlink:href="#DejaVuSans-30"/>
      </g>
     </g>
    </g>
    <g id="xtick_3">
     <g id="line2d_3">
      <g>
       <use style="stroke:#000000;stroke-width:0.8;" x="234.633202" xlink:href="#md2b6226d80" y="252"/>
      </g>
     </g>
     <g id="text_3">
      <!-- 60 -->
      <g transform="translate(228.270702 266.598437)scale(0.1 -0.1)">
       <defs>
        <path d="M 2113 2584 
Q 1688 2584 1439 2293 
Q 1191 2003 1191 1497 
Q 1191 994 1439 701 
Q 1688 409 2113 409 
Q 2538 409 2786 701 
Q 3034 994 3034 1497 
Q 3034 2003 2786 2293 
Q 2538 2584 2113 2584 
z
M 3366 4563 
L 3366 3988 
Q 3128 4100 2886 4159 
Q 2644 4219 2406 4219 
Q 1781 4219 1451 3797 
Q 1122 3375 1075 2522 
Q 1259 2794 1537 2939 
Q 1816 3084 2150 3084 
Q 2853 3084 3261 2657 
Q 3669 2231 3669 1497 
Q 3669 778 3244 343 
Q 2819 -91 2113 -91 
Q 1303 -91 875 529 
Q 447 1150 447 2328 
Q 447 3434 972 4092 
Q 1497 4750 2381 4750 
Q 2619 4750 2861 4703 
Q 3103 4656 3366 4563 
z
" id="DejaVuSans-36" transform="scale(0.015625)"/>
       </defs>
       <use xlink:href="#DejaVuSans-36"/>
       <use x="63.623047" xlink:href="#DejaVuSans-30"/>
      </g>
     </g>
    </g>
    <g id="xtick_4">
     <g id="line2d_4">
      <g>
       <use style="stroke:#000000;stroke-width:0.8;" x="300.799209" xlink:href="#md2b6226d80" y="252"/>
      </g>
     </g>
     <g id="text_4">
      <!-- 80 -->
      <g transform="translate(294.436709 266.598437)scale(0.1 -0.1)">
       <defs>
        <path d="M 2034 2216 
Q 1584 2216 1326 1975 
Q 1069 1734 1069 1313 
Q 1069 891 1326 650 
Q 1584 409 2034 409 
Q 2484 409 2743 651 
Q 3003 894 3003 1313 
Q 3003 1734 2745 1975 
Q 2488 2216 2034 2216 
z
M 1403 2484 
Q 997 2584 770 2862 
Q 544 3141 544 3541 
Q 544 4100 942 4425 
Q 1341 4750 2034 4750 
Q 2731 4750 3128 4425 
Q 3525 4100 3525 3541 
Q 3525 3141 3298 2862 
Q 3072 2584 2669 2484 
Q 3125 2378 3379 2068 
Q 3634 1759 3634 1313 
Q 3634 634 3220 271 
Q 2806 -91 2034 -91 
Q 1263 -91 848 271 
Q 434 634 434 1313 
Q 434 1759 690 2068 
Q 947 2378 1403 2484 
z
M 1172 3481 
Q 1172 3119 1398 2916 
Q 1625 2713 2034 2713 
Q 2441 2713 2670 2916 
Q 2900 3119 2900 3481 
Q 2900 3844 2670 4047 
Q 2441 4250 2034 4250 
Q 1625 4250 1398 4047 
Q 1172 3844 1172 3481 
z
" id="DejaVuSans-38" transform="scale(0.015625)"/>
       </defs>
       <use xlink:href="#DejaVuSans-38"/>
       <use x="63.623047" xlink:href="#DejaVuSans-30"/>
      </g>
     </g>
    </g>
    <g id="xtick_5">
     <g id="line2d_5">
      <g>
       <use style="stroke:#000000;stroke-width:0.8;" x="366.965217" xlink:href="#md2b6226d80" y="252"/>
      </g>
     </g>
     <g id="text_5">
      <!-- 100 -->
      <g transform="translate(357.421467 266.598437)scale(0.1 -0.1)">
       <defs>
        <path d="M 794 531 
L 1825 531 
L 1825 4091 
L 703 3866 
L 703 4441 
L 1819 4666 
L 2450 4666 
L 2450 531 
L 3481 531 
L 3481 0 
L 794 0 
L 794 531 
z
" id="DejaVuSans-31" transform="scale(0.015625)"/>
       </defs>
       <use xlink:href="#DejaVuSans-31"/>
       <use x="63.623047" xlink:href="#DejaVuSans-30"/>
       <use x="127.246094" xlink:href="#DejaVuSans-30"/>
      </g>
     </g>
    </g>
    <g id="text_6">
     <!-- week of 2020 -->
     <g transform="translate(187.539844 280.276563)scale(0.1 -0.1)">
      <defs>
       <path d="M 269 3500 
L 844 3500 
L 1563 769 
L 2278 3500 
L 2956 3500 
L 3675 769 
L 4391 3500 
L 4966 3500 
L 4050 0 
L 3372 0 
L 2619 2869 
L 1863 0 
L 1184 0 
L 269 3500 
z
" id="DejaVuSans-77" transform="scale(0.015625)"/>
       <path d="M 3597 1894 
L 3597 1613 
L 953 1613 
Q 991 1019 1311 708 
Q 1631 397 2203 397 
Q 2534 397 2845 478 
Q 3156 559 3463 722 
L 3463 178 
Q 3153 47 2828 -22 
Q 2503 -91 2169 -91 
Q 1331 -91 842 396 
Q 353 884 353 1716 
Q 353 2575 817 3079 
Q 1281 3584 2069 3584 
Q 2775 3584 3186 3129 
Q 3597 2675 3597 1894 
z
M 3022 2063 
Q 3016 2534 2758 2815 
Q 2500 3097 2075 3097 
Q 1594 3097 1305 2825 
Q 1016 2553 972 2059 
L 3022 2063 
z
" id="DejaVuSans-65" transform="scale(0.015625)"/>
       <path d="M 581 4863 
L 1159 4863 
L 1159 1991 
L 2875 3500 
L 3609 3500 
L 1753 1863 
L 3688 0 
L 2938 0 
L 1159 1709 
L 1159 0 
L 581 0 
L 581 4863 
z
" id="DejaVuSans-6b" transform="scale(0.015625)"/>
       <path id="DejaVuSans-20" transform="scale(0.015625)"/>
       <path d="M 1959 3097 
Q 1497 3097 1228 2736 
Q 959 2375 959 1747 
Q 959 1119 1226 758 
Q 1494 397 1959 397 
Q 2419 397 2687 759 
Q 2956 1122 2956 1747 
Q 2956 2369 2687 2733 
Q 2419 3097 1959 3097 
z
M 1959 3584 
Q 2709 3584 3137 3096 
Q 3566 2609 3566 1747 
Q 3566 888 3137 398 
Q 2709 -91 1959 -91 
Q 1206 -91 779 398 
Q 353 888 353 1747 
Q 353 2609 779 3096 
Q 1206 3584 1959 3584 
z
" id="DejaVuSans-6f" transform="scale(0.015625)"/>
       <path d="M 2375 4863 
L 2375 4384 
L 1825 4384 
Q 1516 4384 1395 4259 
Q 1275 4134 1275 3809 
L 1275 3500 
L 2222 3500 
L 2222 3053 
L 1275 3053 
L 1275 0 
L 697 0 
L 697 3053 
L 147 3053 
L 147 3500 
L 697 3500 
L 697 3744 
Q 697 4328 969 4595 
Q 1241 4863 1831 4863 
L 2375 4863 
z
" id="DejaVuSans-66" transform="scale(0.015625)"/>
      </defs>
      <use xlink:href="#DejaVuSans-77"/>
      <use x="81.787109" xlink:href="#DejaVuSans-65"/>
      <use x="143.310547" xlink:href="#DejaVuSans-65"/>
      <use x="204.833984" xlink:href="#DejaVuSans-6b"/>
      <use x="262.744141" xlink:href="#DejaVuSans-20"/>
      <use x="294.53125" xlink:href="#DejaVuSans-6f"/>
      <use x="355.712891" xlink:href="#DejaVuSans-66"/>
      <use x="390.917969" xlink:href="#DejaVuSans-20"/>
      <use x="422.705078" xlink:href="#DejaVuSans-32"/>
      <use x="486.328125" xlink:href="#DejaVuSans-30"/>
      <use x="549.951172" xlink:href="#DejaVuSans-32"/>
      <use x="613.574219" xlink:href="#DejaVuSans-30"/>
     </g>
    </g>
   </g>
   <g id="matplotlib.axis_2">
    <g id="ytick_1">
     <g id="line2d_6">
      <defs>
       <path d="M 0 0 
L -3.5 0 
" id="ma58cc2e4db" style="stroke:#000000;stroke-width:0.8;"/>
      </defs>
      <g>
       <use style="stroke:#000000;stroke-width:0.8;" x="54" xlink:href="#ma58cc2e4db" y="250.71083"/>
      </g>
     </g>
     <g id="text_7">
      <!-- 0.00 -->
      <g transform="translate(24.734375 254.510049)scale(0.1 -0.1)">
       <defs>
        <path d="M 684 794 
L 1344 794 
L 1344 0 
L 684 0 
L 684 794 
z
" id="DejaVuSans-2e" transform="scale(0.015625)"/>
       </defs>
       <use xlink:href="#DejaVuSans-30"/>
       <use x="63.623047" xlink:href="#DejaVuSans-2e"/>
       <use x="95.410156" xlink:href="#DejaVuSans-30"/>
       <use x="159.033203" xlink:href="#DejaVuSans-30"/>
      </g>
     </g>
    </g>
    <g id="ytick_2">
     <g id="line2d_7">
      <g>
       <use style="stroke:#000000;stroke-width:0.8;" x="54" xlink:href="#ma58cc2e4db" y="224.927431"/>
      </g>
     </g>
     <g id="text_8">
      <!-- 0.25 -->
      <g transform="translate(24.734375 228.72665)scale(0.1 -0.1)">
       <defs>
        <path d="M 691 4666 
L 3169 4666 
L 3169 4134 
L 1269 4134 
L 1269 2991 
Q 1406 3038 1543 3061 
Q 1681 3084 1819 3084 
Q 2600 3084 3056 2656 
Q 3513 2228 3513 1497 
Q 3513 744 3044 326 
Q 2575 -91 1722 -91 
Q 1428 -91 1123 -41 
Q 819 9 494 109 
L 494 744 
Q 775 591 1075 516 
Q 1375 441 1709 441 
Q 2250 441 2565 725 
Q 2881 1009 2881 1497 
Q 2881 1984 2565 2268 
Q 2250 2553 1709 2553 
Q 1456 2553 1204 2497 
Q 953 2441 691 2322 
L 691 4666 
z
" id="DejaVuSans-35" transform="scale(0.015625)"/>
       </defs>
       <use xlink:href="#DejaVuSans-30"/>
       <use x="63.623047" xlink:href="#DejaVuSans-2e"/>
       <use x="95.410156" xlink:href="#DejaVuSans-32"/>
       <use x="159.033203" xlink:href="#DejaVuSans-35"/>
      </g>
     </g>
    </g>
    <g id="ytick_3">
     <g id="line2d_8">
      <g>
       <use style="stroke:#000000;stroke-width:0.8;" x="54" xlink:href="#ma58cc2e4db" y="199.144032"/>
      </g>
     </g>
     <g id="text_9">
      <!-- 0.50 -->
      <g transform="translate(24.734375 202.94325)scale(0.1 -0.1)">
       <use xlink:href="#DejaVuSans-30"/>
       <use x="63.623047" xlink:href="#DejaVuSans-2e"/>
       <use x="95.410156" xlink:href="#DejaVuSans-35"/>
       <use x="159.033203" xlink:href="#DejaVuSans-30"/>
      </g>
     </g>
    </g>
    <g id="ytick_4">
     <g id="line2d_9">
      <g>
       <use style="stroke:#000000;stroke-width:0.8;" x="54" xlink:href="#ma58cc2e4db" y="173.360632"/>
      </g>
     </g>
     <g id="text_10">
      <!-- 0.75 -->
      <g transform="translate(24.734375 177.159851)scale(0.1 -0.1)">
       <defs>
        <path d="M 525 4666 
L 3525 4666 
L 3525 4397 
L 1831 0 
L 1172 0 
L 2766 4134 
L 525 4134 
L 525 4666 
z
" id="DejaVuSans-37" transform="scale(0.015625)"/>
       </defs>
       <use xlink:href="#DejaVuSans-30"/>
       <use x="63.623047" xlink:href="#DejaVuSans-2e"/>
       <use x="95.410156" xlink:href="#DejaVuSans-37"/>
       <use x="159.033203" xlink:href="#DejaVuSans-35"/>
      </g>
     </g>
    </g>
    <g id="ytick_5">
     <g id="line2d_10">
      <g>
       <use style="stroke:#000000;stroke-width:0.8;" x="54" xlink:href="#ma58cc2e4db" y="147.577233"/>
      </g>
     </g>
     <g id="text_11">
      <!-- 1.00 -->
      <g transform="translate(24.734375 151.376452)scale(0.1 -0.1)">
       <use xlink:href="#DejaVuSans-31"/>
       <use x="63.623047" xlink:href="#DejaVuSans-2e"/>
       <use x="95.410156" xlink:href="#DejaVuSans-30"/>
       <use x="159.033203" xlink:href="#DejaVuSans-30"/>
      </g>
     </g>
    </g>
    <g id="ytick_6">
     <g id="line2d_11">
      <g>
       <use style="stroke:#000000;stroke-width:0.8;" x="54" xlink:href="#ma58cc2e4db" y="121.793834"/>
      </g>
     </g>
     <g id="text_12">
      <!-- 1.25 -->
      <g transform="translate(24.734375 125.593053)scale(0.1 -0.1)">
       <use xlink:href="#DejaVuSans-31"/>
       <use x="63.623047" xlink:href="#DejaVuSans-2e"/>
       <use x="95.410156" xlink:href="#DejaVuSans-32"/>
       <use x="159.033203" xlink:href="#DejaVuSans-35"/>
      </g>
     </g>
    </g>
    <g id="ytick_7">
     <g id="line2d_12">
      <g>
       <use style="stroke:#000000;stroke-width:0.8;" x="54" xlink:href="#ma58cc2e4db" y="96.010435"/>
      </g>
     </g>
     <g id="text_13">
      <!-- 1.50 -->
      <g transform="translate(24.734375 99.809654)scale(0.1 -0.1)">
       <use xlink:href="#DejaVuSans-31"/>
       <use x="63.623047" xlink:href="#DejaVuSans-2e"/>
       <use x="95.410156" xlink:href="#DejaVuSans-35"/>
       <use x="159.033203" xlink:href="#DejaVuSans-30"/>
      </g>
     </g>
    </g>
    <g id="ytick_8">
     <g id="line2d_13">
      <g>
       <use style="stroke:#000000;stroke-width:0.8;" x="54" xlink:href="#ma58cc2e4db" y="70.227036"/>
      </g>
     </g>
     <g id="text_14">
      <!-- 1.75 -->
      <g transform="translate(24.734375 74.026254)scale(0.1 -0.1)">
       <use xlink:href="#DejaVuSans-31"/>
       <use x="63.623047" xlink:href="#DejaVuSans-2e"/>
       <use x="95.410156" xlink:href="#DejaVuSans-37"/>
       <use x="159.033203" xlink:href="#DejaVuSans-35"/>
      </g>
     </g>
    </g>
    <g id="ytick_9">
     <g id="line2d_14">
      <g>
       <use style="stroke:#000000;stroke-width:0.8;" x="54" xlink:href="#ma58cc2e4db" y="44.443636"/>
      </g>
     </g>
     <g id="text_15">
      <!-- 2.00 -->
      <g transform="translate(24.734375 48.242855)scale(0.1 -0.1)">
       <use xlink:href="#DejaVuSans-32"/>
       <use x="63.623047" xlink:href="#DejaVuSans-2e"/>
       <use x="95.410156" xlink:href="#DejaVuSans-30"/>
       <use x="159.033203" xlink:href="#DejaVuSans-30"/>
      </g>
     </g>
    </g>
   </g>
   <g id="line2d_15">
    <path clip-path="url(#p6386fed48f)" d="M 69.218182 156.1717 
L 72.526482 71.454816 
L 75.834783 114.372173 
L 79.143083 143.461573 
L 82.451383 176.616377 
L 85.759684 188.158323 
L 89.067984 195.325894 
L 92.376285 197.504989 
L 95.684585 188.191791 
L 98.992885 179.07105 
L 102.301186 197.04782 
L 105.609486 187.759154 
L 108.917787 177.695894 
L 112.226087 186.930843 
L 115.534387 183.082242 
L 118.842688 155.894459 
L 122.150988 169.821734 
L 125.459289 172.834441 
L 128.767589 94.616738 
L 132.075889 77.89237 
L 135.38419 123.310505 
L 138.69249 148.723162 
L 142.000791 116.637154 
L 145.309091 150.123742 
L 148.617391 94.398972 
L 151.925692 60.945012 
L 155.233992 70.227036 
L 158.542292 132.732246 
L 161.850593 113.900957 
L 165.158893 120.820876 
L 168.467194 135.790536 
L 171.775494 122.833929 
L 175.083794 138.310854 
L 178.392095 149.483999 
L 181.700395 145.977699 
L 185.008696 154.995404 
L 188.316996 160.968032 
L 191.625296 171.331794 
L 194.933597 181.774959 
L 198.241897 184.803081 
L 201.550198 186.771791 
L 204.858498 186.249208 
L 208.166798 188.816744 
L 211.475099 188.677392 
L 214.783399 185.667263 
L 218.0917 194.167137 
L 221.4 191.65572 
L 224.7083 189.696679 
L 228.016601 182.9514 
L 231.324901 179.747346 
L 234.633202 168.007409 
L 237.941502 155.242568 
L 241.249802 147.244544 
L 244.558103 136.936465 
L 247.866403 114.119177 
L 251.174704 113.134778 
L 254.483004 92.659819 
L 257.791304 85.244319 
L 261.099605 82.880538 
L 264.407905 78.95745 
L 267.716206 64.682392 
L 271.024506 76.781497 
L 274.332806 72.438641 
L 277.641107 89.834325 
L 280.949407 93.310602 
L 284.257708 81.946762 
L 287.566008 108.985307 
L 290.874308 64.088131 
L 294.182609 67.648696 
L 297.490909 66.155973 
L 300.799209 118.430782 
L 304.10751 109.691422 
L 307.41581 108.55371 
L 310.724111 93.1977 
L 314.032411 149.345238 
L 317.340711 117.085561 
L 320.649012 114.128499 
L 323.957312 116.027926 
L 327.265613 138.118235 
L 330.573913 148.203804 
L 333.882213 152.140667 
L 337.190514 142.747714 
L 340.498814 152.493802 
L 343.807115 143.703179 
L 347.115415 147.48794 
L 350.423715 145.211784 
L 353.732016 140.250422 
L 357.040316 132.739185 
L 360.348617 126.574576 
L 363.656917 116.8765 
L 366.965217 119.289082 
L 370.273518 111.247177 
L 373.581818 105.876272 
" style="fill:none;stroke:#1f77b4;stroke-linecap:square;stroke-width:1.5;"/>
   </g>
   <g id="line2d_16">
    <path clip-path="url(#p6386fed48f)" d="M 69.218182 44.443636 
L 72.526482 111.971587 
L 75.834783 125.147325 
L 79.143083 137.489831 
L 82.451383 156.819348 
L 85.759684 171.829837 
L 89.067984 175.664681 
L 92.376285 176.575677 
L 95.684585 171.078916 
L 98.992885 155.883295 
L 102.301186 177.762676 
L 105.609486 180.392469 
L 108.917787 175.870521 
L 112.226087 172.003611 
L 115.534387 172.937954 
L 118.842688 142.586898 
L 122.150988 133.421641 
L 125.459289 166.520139 
L 128.767589 139.21505 
L 132.075889 128.065472 
L 135.38419 135.443869 
L 138.69249 169.349881 
L 142.000791 169.67729 
L 145.309091 160.309776 
L 148.617391 142.742846 
L 151.925692 108.386466 
L 155.233992 121.793834 
L 158.542292 135.857506 
L 161.850593 155.996302 
L 165.158893 137.361169 
L 168.467194 149.869091 
L 171.775494 140.351312 
L 175.083794 142.041474 
L 178.392095 159.242153 
L 181.700395 154.557018 
L 185.008696 158.989804 
L 188.316996 161.565593 
L 191.625296 170.716636 
L 194.933597 175.441246 
L 198.241897 175.558189 
L 201.550198 177.775124 
L 204.858498 176.553101 
L 208.166798 179.638481 
L 211.475099 181.043432 
L 214.783399 180.583212 
L 218.0917 184.228781 
L 221.4 184.767247 
L 224.7083 181.479451 
L 228.016601 178.583002 
L 231.324901 174.115323 
L 234.633202 162.059383 
L 237.941502 159.539801 
L 241.249802 159.953265 
L 244.558103 160.988379 
L 247.866403 141.828426 
L 251.174704 143.072102 
L 254.483004 132.213433 
L 257.791304 126.834693 
L 261.099605 124.942685 
L 264.407905 123.82031 
L 267.716206 113.565777 
L 271.024506 125.363843 
L 274.332806 123.165589 
L 277.641107 135.373835 
L 280.949407 140.287686 
L 284.257708 126.851821 
L 287.566008 147.577233 
L 290.874308 155.762439 
L 294.182609 121.793834 
L 297.490909 125.864897 
L 300.799209 149.819268 
L 304.10751 149.682 
L 307.41581 161.514206 
L 310.724111 156.953015 
L 314.032411 178.81198 
L 317.340711 148.922454 
L 320.649012 150.713052 
L 323.957312 160.8497 
L 327.265613 167.868311 
L 330.573913 176.399502 
L 333.882213 177.043975 
L 337.190514 163.156326 
L 340.498814 169.301605 
L 343.807115 173.439161 
L 347.115415 164.989399 
L 350.423715 165.344387 
L 353.732016 163.940446 
L 357.040316 166.026659 
L 360.348617 157.570278 
L 363.656917 154.235963 
L 366.965217 153.975579 
L 370.273518 152.146647 
L 373.581818 150.608181 
" style="fill:none;stroke:#ff7f0e;stroke-linecap:square;stroke-width:1.5;"/>
   </g>
   <g id="line2d_17">
    <path clip-path="url(#p6386fed48f)" d="M 69.218182 199.144032 
L 72.526482 204.055155 
L 75.834783 202.772399 
L 79.143083 191.396907 
L 82.451383 174.515897 
L 85.759684 165.406499 
L 89.067984 169.608325 
L 92.376285 164.850219 
L 95.684585 176.783208 
L 98.992885 160.036325 
L 102.301186 175.666465 
L 105.609486 166.998495 
L 108.917787 173.132461 
L 112.226087 181.502758 
L 115.534387 164.48438 
L 118.842688 172.52891 
L 122.150988 183.977326 
L 125.459289 191.777346 
L 128.767589 194.96294 
L 132.075889 181.025967 
L 135.38419 181.955099 
L 138.69249 203.727747 
L 142.000791 193.250683 
L 145.309091 179.40859 
L 148.617391 213.647194 
L 151.925692 182.642656 
L 155.233992 207.738498 
L 158.542292 184.299044 
L 161.850593 197.565456 
L 165.158893 191.846843 
L 168.467194 196.68847 
L 171.775494 183.48787 
L 175.083794 181.513843 
L 178.392095 186.1612 
L 181.700395 185.82064 
L 185.008696 182.175341 
L 188.316996 173.815594 
L 191.625296 170.834936 
L 194.933597 162.255018 
L 198.241897 163.642129 
L 201.550198 164.593621 
L 204.858498 164.033127 
L 208.166798 169.680274 
L 211.475099 166.812408 
L 214.783399 169.150823 
L 218.0917 165.015654 
L 221.4 164.798415 
L 224.7083 168.981391 
L 228.016601 166.036176 
L 231.324901 176.413189 
L 234.633202 175.093318 
L 237.941502 180.793684 
L 241.249802 186.568387 
L 244.558103 191.65142 
L 247.866403 186.899073 
L 251.174704 189.625125 
L 254.483004 185.714327 
L 257.791304 194.326919 
L 261.099605 194.937817 
L 264.407905 190.706755 
L 267.716206 186.696873 
L 271.024506 186.110665 
L 274.332806 181.395199 
L 277.641107 186.122113 
L 280.949407 186.994786 
L 284.257708 172.743805 
L 287.566008 190.826806 
L 290.874308 168.858769 
L 294.182609 144.998893 
L 297.490909 180.145737 
L 300.799209 183.449789 
L 304.10751 164.415371 
L 307.41581 181.025967 
L 310.724111 189.76825 
L 314.032411 200.617369 
L 317.340711 184.795009 
L 320.649012 173.709057 
L 323.957312 178.473796 
L 327.265613 184.040147 
L 330.573913 187.176524 
L 333.882213 183.041631 
L 337.190514 180.293329 
L 340.498814 190.111266 
L 343.807115 189.249489 
L 347.115415 186.24117 
L 350.423715 181.271747 
L 353.732016 192.235895 
L 357.040316 190.338029 
L 360.348617 193.82144 
L 363.656917 191.672139 
L 366.965217 192.172184 
L 370.273518 190.841858 
L 373.581818 182.138176 
" style="fill:none;stroke:#2ca02c;stroke-linecap:square;stroke-width:1.5;"/>
   </g>
   <g id="line2d_18">
    <path clip-path="url(#p6386fed48f)" d="M 69.218182 242.116364 
L 72.526482 234.749678 
L 75.834783 228.280922 
L 79.143083 216.494363 
L 82.451383 189.271773 
L 85.759684 176.092052 
L 89.067984 176.19132 
L 92.376285 177.332158 
L 95.684585 185.910075 
L 98.992885 180.109307 
L 102.301186 191.597671 
L 105.609486 181.731866 
L 108.917787 184.997388 
L 112.226087 193.715948 
L 115.534387 172.937954 
L 118.842688 189.163361 
L 122.150988 194.088463 
L 125.459289 200.196415 
L 128.767589 211.687307 
L 132.075889 175.451178 
L 135.38419 216.332964 
L 138.69249 206.019605 
L 142.000791 207.984054 
L 145.309091 218.879473 
L 148.617391 221.704506 
L 151.925692 192.956016 
L 155.233992 209.457391 
L 158.542292 215.551649 
L 161.850593 211.772635 
L 165.158893 204.981782 
L 168.467194 211.749249 
L 171.775494 210.858782 
L 175.083794 198.12112 
L 178.392095 200.966675 
L 181.700395 197.562674 
L 185.008696 199.023899 
L 188.316996 187.912601 
L 191.625296 178.240491 
L 194.933597 174.684659 
L 198.241897 171.276743 
L 201.550198 171.957181 
L 204.858498 176.140766 
L 208.166798 177.786115 
L 211.475099 175.873978 
L 214.783399 178.041187 
L 218.0917 173.287329 
L 221.4 174.434538 
L 224.7083 180.027905 
L 228.016601 187.221262 
L 231.324901 192.272964 
L 234.633202 195.782104 
L 237.941502 202.744416 
L 241.249802 210.122769 
L 244.558103 212.429251 
L 247.866403 214.033442 
L 251.174704 218.690488 
L 254.483004 216.768817 
L 257.791304 212.963618 
L 261.099605 213.947119 
L 264.407905 210.079354 
L 267.716206 209.586712 
L 271.024506 209.83517 
L 274.332806 205.022983 
L 277.641107 209.338334 
L 280.949407 207.513512 
L 284.257708 187.054208 
L 287.566008 207.461257 
L 290.874308 178.681016 
L 294.182609 224.927431 
L 297.490909 234.426578 
L 300.799209 212.59624 
L 304.10751 208.615484 
L 307.41581 215.868399 
L 310.724111 198.206453 
L 314.032411 212.404065 
L 317.340711 193.763148 
L 320.649012 202.628275 
L 323.957312 201.319846 
L 327.265613 199.75429 
L 330.573913 206.850856 
L 333.882213 199.600375 
L 337.190514 198.676659 
L 340.498814 213.55072 
L 343.807115 209.247983 
L 347.115415 204.010509 
L 350.423715 204.032627 
L 353.732016 210.09936 
L 357.040316 207.321968 
L 360.348617 214.248682 
L 363.656917 214.594126 
L 366.965217 213.965254 
L 370.273518 211.742098 
L 373.581818 203.578573 
" style="fill:none;stroke:#d62728;stroke-linecap:square;stroke-width:1.5;"/>
   </g>
   <g id="patch_3">
    <path d="M 54 252 
L 54 34.56 
" style="fill:none;stroke:#000000;stroke-linecap:square;stroke-linejoin:miter;stroke-width:0.8;"/>
   </g>
   <g id="patch_4">
    <path d="M 388.8 252 
L 388.8 34.56 
" style="fill:none;stroke:#000000;stroke-linecap:square;stroke-linejoin:miter;stroke-width:0.8;"/>
   </g>
   <g id="patch_5">
    <path d="M 54 252 
L 388.8 252 
" style="fill:none;stroke:#000000;stroke-linecap:square;stroke-linejoin:miter;stroke-width:0.8;"/>
   </g>
   <g id="patch_6">
    <path d="M 54 34.56 
L 388.8 34.56 
" style="fill:none;stroke:#000000;stroke-linecap:square;stroke-linejoin:miter;stroke-width:0.8;"/>
   </g>
   <g id="text_16">
    <!-- cases in age-groups relative to 80-84 -->
    <g transform="translate(109.498125 28.56)scale(0.12 -0.12)">
     <defs>
      <path d="M 3122 3366 
L 3122 2828 
Q 2878 2963 2633 3030 
Q 2388 3097 2138 3097 
Q 1578 3097 1268 2742 
Q 959 2388 959 1747 
Q 959 1106 1268 751 
Q 1578 397 2138 397 
Q 2388 397 2633 464 
Q 2878 531 3122 666 
L 3122 134 
Q 2881 22 2623 -34 
Q 2366 -91 2075 -91 
Q 1284 -91 818 406 
Q 353 903 353 1747 
Q 353 2603 823 3093 
Q 1294 3584 2113 3584 
Q 2378 3584 2631 3529 
Q 2884 3475 3122 3366 
z
" id="DejaVuSans-63" transform="scale(0.015625)"/>
      <path d="M 2194 1759 
Q 1497 1759 1228 1600 
Q 959 1441 959 1056 
Q 959 750 1161 570 
Q 1363 391 1709 391 
Q 2188 391 2477 730 
Q 2766 1069 2766 1631 
L 2766 1759 
L 2194 1759 
z
M 3341 1997 
L 3341 0 
L 2766 0 
L 2766 531 
Q 2569 213 2275 61 
Q 1981 -91 1556 -91 
Q 1019 -91 701 211 
Q 384 513 384 1019 
Q 384 1609 779 1909 
Q 1175 2209 1959 2209 
L 2766 2209 
L 2766 2266 
Q 2766 2663 2505 2880 
Q 2244 3097 1772 3097 
Q 1472 3097 1187 3025 
Q 903 2953 641 2809 
L 641 3341 
Q 956 3463 1253 3523 
Q 1550 3584 1831 3584 
Q 2591 3584 2966 3190 
Q 3341 2797 3341 1997 
z
" id="DejaVuSans-61" transform="scale(0.015625)"/>
      <path d="M 2834 3397 
L 2834 2853 
Q 2591 2978 2328 3040 
Q 2066 3103 1784 3103 
Q 1356 3103 1142 2972 
Q 928 2841 928 2578 
Q 928 2378 1081 2264 
Q 1234 2150 1697 2047 
L 1894 2003 
Q 2506 1872 2764 1633 
Q 3022 1394 3022 966 
Q 3022 478 2636 193 
Q 2250 -91 1575 -91 
Q 1294 -91 989 -36 
Q 684 19 347 128 
L 347 722 
Q 666 556 975 473 
Q 1284 391 1588 391 
Q 1994 391 2212 530 
Q 2431 669 2431 922 
Q 2431 1156 2273 1281 
Q 2116 1406 1581 1522 
L 1381 1569 
Q 847 1681 609 1914 
Q 372 2147 372 2553 
Q 372 3047 722 3315 
Q 1072 3584 1716 3584 
Q 2034 3584 2315 3537 
Q 2597 3491 2834 3397 
z
" id="DejaVuSans-73" transform="scale(0.015625)"/>
      <path d="M 603 3500 
L 1178 3500 
L 1178 0 
L 603 0 
L 603 3500 
z
M 603 4863 
L 1178 4863 
L 1178 4134 
L 603 4134 
L 603 4863 
z
" id="DejaVuSans-69" transform="scale(0.015625)"/>
      <path d="M 3513 2113 
L 3513 0 
L 2938 0 
L 2938 2094 
Q 2938 2591 2744 2837 
Q 2550 3084 2163 3084 
Q 1697 3084 1428 2787 
Q 1159 2491 1159 1978 
L 1159 0 
L 581 0 
L 581 3500 
L 1159 3500 
L 1159 2956 
Q 1366 3272 1645 3428 
Q 1925 3584 2291 3584 
Q 2894 3584 3203 3211 
Q 3513 2838 3513 2113 
z
" id="DejaVuSans-6e" transform="scale(0.015625)"/>
      <path d="M 2906 1791 
Q 2906 2416 2648 2759 
Q 2391 3103 1925 3103 
Q 1463 3103 1205 2759 
Q 947 2416 947 1791 
Q 947 1169 1205 825 
Q 1463 481 1925 481 
Q 2391 481 2648 825 
Q 2906 1169 2906 1791 
z
M 3481 434 
Q 3481 -459 3084 -895 
Q 2688 -1331 1869 -1331 
Q 1566 -1331 1297 -1286 
Q 1028 -1241 775 -1147 
L 775 -588 
Q 1028 -725 1275 -790 
Q 1522 -856 1778 -856 
Q 2344 -856 2625 -561 
Q 2906 -266 2906 331 
L 2906 616 
Q 2728 306 2450 153 
Q 2172 0 1784 0 
Q 1141 0 747 490 
Q 353 981 353 1791 
Q 353 2603 747 3093 
Q 1141 3584 1784 3584 
Q 2172 3584 2450 3431 
Q 2728 3278 2906 2969 
L 2906 3500 
L 3481 3500 
L 3481 434 
z
" id="DejaVuSans-67" transform="scale(0.015625)"/>
      <path d="M 313 2009 
L 1997 2009 
L 1997 1497 
L 313 1497 
L 313 2009 
z
" id="DejaVuSans-2d" transform="scale(0.015625)"/>
      <path d="M 2631 2963 
Q 2534 3019 2420 3045 
Q 2306 3072 2169 3072 
Q 1681 3072 1420 2755 
Q 1159 2438 1159 1844 
L 1159 0 
L 581 0 
L 581 3500 
L 1159 3500 
L 1159 2956 
Q 1341 3275 1631 3429 
Q 1922 3584 2338 3584 
Q 2397 3584 2469 3576 
Q 2541 3569 2628 3553 
L 2631 2963 
z
" id="DejaVuSans-72" transform="scale(0.015625)"/>
      <path d="M 544 1381 
L 544 3500 
L 1119 3500 
L 1119 1403 
Q 1119 906 1312 657 
Q 1506 409 1894 409 
Q 2359 409 2629 706 
Q 2900 1003 2900 1516 
L 2900 3500 
L 3475 3500 
L 3475 0 
L 2900 0 
L 2900 538 
Q 2691 219 2414 64 
Q 2138 -91 1772 -91 
Q 1169 -91 856 284 
Q 544 659 544 1381 
z
M 1991 3584 
L 1991 3584 
z
" id="DejaVuSans-75" transform="scale(0.015625)"/>
      <path d="M 1159 525 
L 1159 -1331 
L 581 -1331 
L 581 3500 
L 1159 3500 
L 1159 2969 
Q 1341 3281 1617 3432 
Q 1894 3584 2278 3584 
Q 2916 3584 3314 3078 
Q 3713 2572 3713 1747 
Q 3713 922 3314 415 
Q 2916 -91 2278 -91 
Q 1894 -91 1617 61 
Q 1341 213 1159 525 
z
M 3116 1747 
Q 3116 2381 2855 2742 
Q 2594 3103 2138 3103 
Q 1681 3103 1420 2742 
Q 1159 2381 1159 1747 
Q 1159 1113 1420 752 
Q 1681 391 2138 391 
Q 2594 391 2855 752 
Q 3116 1113 3116 1747 
z
" id="DejaVuSans-70" transform="scale(0.015625)"/>
      <path d="M 603 4863 
L 1178 4863 
L 1178 0 
L 603 0 
L 603 4863 
z
" id="DejaVuSans-6c" transform="scale(0.015625)"/>
      <path d="M 1172 4494 
L 1172 3500 
L 2356 3500 
L 2356 3053 
L 1172 3053 
L 1172 1153 
Q 1172 725 1289 603 
Q 1406 481 1766 481 
L 2356 481 
L 2356 0 
L 1766 0 
Q 1100 0 847 248 
Q 594 497 594 1153 
L 594 3053 
L 172 3053 
L 172 3500 
L 594 3500 
L 594 4494 
L 1172 4494 
z
" id="DejaVuSans-74" transform="scale(0.015625)"/>
      <path d="M 191 3500 
L 800 3500 
L 1894 563 
L 2988 3500 
L 3597 3500 
L 2284 0 
L 1503 0 
L 191 3500 
z
" id="DejaVuSans-76" transform="scale(0.015625)"/>
     </defs>
     <use xlink:href="#DejaVuSans-63"/>
     <use x="54.980469" xlink:href="#DejaVuSans-61"/>
     <use x="116.259766" xlink:href="#DejaVuSans-73"/>
     <use x="168.359375" xlink:href="#DejaVuSans-65"/>
     <use x="229.882812" xlink:href="#DejaVuSans-73"/>
     <use x="281.982422" xlink:href="#DejaVuSans-20"/>
     <use x="313.769531" xlink:href="#DejaVuSans-69"/>
     <use x="341.552734" xlink:href="#DejaVuSans-6e"/>
     <use x="404.931641" xlink:href="#DejaVuSans-20"/>
     <use x="436.71875" xlink:href="#DejaVuSans-61"/>
     <use x="497.998047" xlink:href="#DejaVuSans-67"/>
     <use x="561.474609" xlink:href="#DejaVuSans-65"/>
     <use x="622.998047" xlink:href="#DejaVuSans-2d"/>
     <use x="659.082031" xlink:href="#DejaVuSans-67"/>
     <use x="722.558594" xlink:href="#DejaVuSans-72"/>
     <use x="761.421875" xlink:href="#DejaVuSans-6f"/>
     <use x="822.603516" xlink:href="#DejaVuSans-75"/>
     <use x="885.982422" xlink:href="#DejaVuSans-70"/>
     <use x="949.458984" xlink:href="#DejaVuSans-73"/>
     <use x="1001.558594" xlink:href="#DejaVuSans-20"/>
     <use x="1033.345703" xlink:href="#DejaVuSans-72"/>
     <use x="1072.208984" xlink:href="#DejaVuSans-65"/>
     <use x="1133.732422" xlink:href="#DejaVuSans-6c"/>
     <use x="1161.515625" xlink:href="#DejaVuSans-61"/>
     <use x="1222.794922" xlink:href="#DejaVuSans-74"/>
     <use x="1262.003906" xlink:href="#DejaVuSans-69"/>
     <use x="1289.787109" xlink:href="#DejaVuSans-76"/>
     <use x="1348.966797" xlink:href="#DejaVuSans-65"/>
     <use x="1410.490234" xlink:href="#DejaVuSans-20"/>
     <use x="1442.277344" xlink:href="#DejaVuSans-74"/>
     <use x="1481.486328" xlink:href="#DejaVuSans-6f"/>
     <use x="1542.667969" xlink:href="#DejaVuSans-20"/>
     <use x="1574.455078" xlink:href="#DejaVuSans-38"/>
     <use x="1638.078125" xlink:href="#DejaVuSans-30"/>
     <use x="1701.701172" xlink:href="#DejaVuSans-2d"/>
     <use x="1737.785156" xlink:href="#DejaVuSans-38"/>
     <use x="1801.408203" xlink:href="#DejaVuSans-34"/>
    </g>
   </g>
   <g id="legend_1">
    <g id="patch_7">
     <path d="M 337.075 101.2725 
L 381.8 101.2725 
Q 383.8 101.2725 383.8 99.2725 
L 383.8 41.56 
Q 383.8 39.56 381.8 39.56 
L 337.075 39.56 
Q 335.075 39.56 335.075 41.56 
L 335.075 99.2725 
Q 335.075 101.2725 337.075 101.2725 
z
" style="fill:#ffffff;opacity:0.8;stroke:#cccccc;stroke-linejoin:miter;"/>
    </g>
    <g id="line2d_19">
     <path d="M 339.075 47.658437 
L 359.075 47.658437 
" style="fill:none;stroke:#1f77b4;stroke-linecap:square;stroke-width:1.5;"/>
    </g>
    <g id="line2d_20"/>
    <g id="text_17">
     <!-- 70 -->
     <g transform="translate(367.075 51.158437)scale(0.1 -0.1)">
      <use xlink:href="#DejaVuSans-37"/>
      <use x="63.623047" xlink:href="#DejaVuSans-30"/>
     </g>
    </g>
    <g id="line2d_21">
     <path d="M 339.075 62.336562 
L 359.075 62.336562 
" style="fill:none;stroke:#ff7f0e;stroke-linecap:square;stroke-width:1.5;"/>
    </g>
    <g id="line2d_22"/>
    <g id="text_18">
     <!-- 75 -->
     <g transform="translate(367.075 65.836562)scale(0.1 -0.1)">
      <use xlink:href="#DejaVuSans-37"/>
      <use x="63.623047" xlink:href="#DejaVuSans-35"/>
     </g>
    </g>
    <g id="line2d_23">
     <path d="M 339.075 77.014687 
L 359.075 77.014687 
" style="fill:none;stroke:#2ca02c;stroke-linecap:square;stroke-width:1.5;"/>
    </g>
    <g id="line2d_24"/>
    <g id="text_19">
     <!-- 85 -->
     <g transform="translate(367.075 80.514687)scale(0.1 -0.1)">
      <use xlink:href="#DejaVuSans-38"/>
      <use x="63.623047" xlink:href="#DejaVuSans-35"/>
     </g>
    </g>
    <g id="line2d_25">
     <path d="M 339.075 91.692813 
L 359.075 91.692813 
" style="fill:none;stroke:#d62728;stroke-linecap:square;stroke-width:1.5;"/>
    </g>
    <g id="line2d_26"/>
    <g id="text_20">
     <!-- 90 -->
     <g transform="translate(367.075 95.192813)scale(0.1 -0.1)">
      <defs>
       <path d="M 703 97 
L 703 672 
Q 941 559 1184 500 
Q 1428 441 1663 441 
Q 2288 441 2617 861 
Q 2947 1281 2994 2138 
Q 2813 1869 2534 1725 
Q 2256 1581 1919 1581 
Q 1219 1581 811 2004 
Q 403 2428 403 3163 
Q 403 3881 828 4315 
Q 1253 4750 1959 4750 
Q 2769 4750 3195 4129 
Q 3622 3509 3622 2328 
Q 3622 1225 3098 567 
Q 2575 -91 1691 -91 
Q 1453 -91 1209 -44 
Q 966 3 703 97 
z
M 1959 2075 
Q 2384 2075 2632 2365 
Q 2881 2656 2881 3163 
Q 2881 3666 2632 3958 
Q 2384 4250 1959 4250 
Q 1534 4250 1286 3958 
Q 1038 3666 1038 3163 
Q 1038 2656 1286 2365 
Q 1534 2075 1959 2075 
z
" id="DejaVuSans-39" transform="scale(0.015625)"/>
      </defs>
      <use xlink:href="#DejaVuSans-39"/>
      <use x="63.623047" xlink:href="#DejaVuSans-30"/>
     </g>
    </g>
   </g>
  </g>
 </g>
 <defs>
  <clipPath id="p6386fed48f">
   <rect height="217.44" width="334.8" x="54" y="34.56"/>
  </clipPath>
 </defs>
</svg>
